<?xml version="1.0" encoding="UTF-8" standalone="no"?>
<svg width="26px" height="21px" viewBox="0 0 26 21" version="1.1" xmlns="http://www.w3.org/2000/svg" xmlns:xlink="http://www.w3.org/1999/xlink">
    <!-- Generator: Sketch 46 (44423) - http://www.bohemiancoding.com/sketch -->
    <title>Page 1</title>
    <desc>Created with Sketch.</desc>
    <defs></defs>
    <g id="Page-1" stroke="none" stroke-width="1" fill="none" fill-rule="evenodd">
        <g id="05.01.-Chi-tiết-TTHC" transform="translate(-306.000000, -1015.000000)" fill="#FFFFFF">
            <path d="M314.051136,1015.66477 C314.494318,1015.22159 315.035983,1015 315.676136,1015 C316.316289,1015 316.857955,1015.22159 317.301136,1015.66477 C317.744318,1016.10795 317.965909,1016.67424 317.965909,1017.36364 C317.965909,1018.05303 317.744318,1018.61932 317.301136,1019.0625 L313.681818,1022.75568 L329.710227,1022.75568 C330.35038,1022.75568 330.892045,1022.98958 331.335227,1023.45738 C331.778409,1023.92519 332,1024.47917 332,1025.11932 C332,1025.75947 331.778409,1026.31345 331.335227,1026.78125 C330.892045,1027.24905 330.35038,1027.48295 329.710227,1027.48295 L313.681818,1027.48295 L317.227273,1031.17614 C317.670455,1031.61932 317.892045,1032.1856 317.892045,1032.875 C317.892045,1033.5644 317.670455,1034.13068 317.227273,1034.57386 C316.784091,1035.01705 316.254736,1035.23864 315.639202,1035.23864 C315.023673,1035.23864 314.494318,1035.01705 314.051136,1034.57386 L306.664773,1026.74432 C306.221589,1026.30114 306,1025.75947 306,1025.11932 C306,1024.42992 306.221589,1023.86364 306.664773,1023.42045 L314.051136,1015.66477 Z" id="Page-1"></path>
        </g>
    </g>
</svg>