<?xml version="1.0" encoding="UTF-8" standalone="no"?>
<svg width="31px" height="31px" viewBox="0 0 31 31" version="1.1" xmlns="http://www.w3.org/2000/svg" xmlns:xlink="http://www.w3.org/1999/xlink">
    <!-- Generator: Sketch 46 (44423) - http://www.bohemiancoding.com/sketch -->
    <title>Page 1 Copy 3</title>
    <desc>Created with Sketch.</desc>
    <defs></defs>
    <g id="Page-1" stroke="none" stroke-width="1" fill="none" fill-rule="evenodd">
        <g id="05.01.-Chi-tiết-TTHC" transform="translate(-238.000000, -288.000000)" fill="#52555C">
            <g id="Group-3" transform="translate(100.000000, 267.000000)">
                <g id="Group-10" transform="translate(50.000000, 21.000000)">
                    <path d="M103.048193,0.571428571 C98.9231728,0.571428571 95.3919568,2.0351904 92.4544408,4.96275393 C89.516928,7.89032145 88.0481928,11.4095783 88.0481928,15.5206281 C88.0481928,19.6316779 89.516928,23.1509347 92.4544408,26.0785022 C95.3919568,29.0060666 98.9231728,30.4698276 103.048193,30.4698276 C107.173213,30.4698276 110.704429,29.0060666 113.641945,26.0785022 C116.579457,23.1509347 118.048193,19.6316779 118.048193,15.5206281 C118.048193,11.4095783 116.579457,7.89032145 113.641945,4.96275393 C110.704429,2.0351904 107.173213,0.571428571 103.048193,0.571428571 L103.048193,0.571428571 Z M103.048193,28.476601 C99.4648408,28.476601 96.4023728,27.2100841 93.8606928,24.6770128 C91.3190136,22.1439407 90.0481928,19.0918443 90.0481928,15.5206281 C90.0481928,11.9494118 91.3190136,8.89731547 93.8606928,6.36424338 C96.4023728,3.83117129 99.4648408,2.56465517 103.048193,2.56465517 C106.631545,2.56465517 109.694013,3.83117129 112.235693,6.36424338 C114.777373,8.89731547 116.048193,11.9494118 116.048193,15.5206281 C116.048193,19.0918443 114.777373,22.1439407 112.235693,24.6770128 C109.694013,27.2100841 106.631545,28.476601 103.048193,28.476601 L103.048193,28.476601 Z M109.798193,12.8422298 C109.631525,12.6345994 109.423193,12.5307882 109.173193,12.5307882 L96.9231928,12.5307882 C96.6731928,12.5307882 96.4648608,12.6553648 96.2981928,12.9045182 C95.8815248,13.4028288 95.8815248,13.9218929 96.2981928,14.4617264 L102.423193,22.1854795 C102.589861,22.39311 102.798193,22.4969212 103.048193,22.4969212 C103.298193,22.4969212 103.506525,22.39311 103.673193,22.1854795 L103.673193,22.1231912 L109.798193,14.4617264 C110.214861,13.9218929 110.214861,13.4028288 109.798193,12.9045182 L109.798193,12.8422298 Z" id="Page-1-Copy-3" transform="translate(103.048193, 15.520628) scale(1, -1) translate(-103.048193, -15.520628) "></path>
                </g>
            </g>
        </g>
    </g>
</svg>