<?xml version="1.0" encoding="UTF-8" standalone="no"?>
<svg width="28px" height="28px" viewBox="0 0 28 28" version="1.1" xmlns="http://www.w3.org/2000/svg" xmlns:xlink="http://www.w3.org/1999/xlink">
    <!-- Generator: Sketch 46 (44423) - http://www.bohemiancoding.com/sketch -->
    <title>icon (1)</title>
    <desc>Created with Sketch.</desc>
    <defs></defs>
    <g id="Page-1" stroke="none" stroke-width="1" fill="none" fill-rule="evenodd">
        <g id="05.01.-Chi-tiết-TTHC" transform="translate(-1589.000000, -1011.000000)" fill-rule="nonzero" fill="#FFFFFF">
            <g id="icon-(1)" transform="translate(1589.000000, 1011.000000)">
                <g id="Capa_1">
                    <g id="Group">
                        <path d="M27.8295111,4.40335642 C27.6725414,4.13869654 27.413697,3.95313238 27.1150303,3.89257026 L11.2662384,0.0406028513 C10.7439111,-0.0614745418 10.228598,0.229417515 10.0478141,0.732562118 L4.00671515,16.2047006 L6.02350707,16.9456456 L11.7485172,2.23412627 L25.5192566,5.77678208 C24.6592323,8.46466802 22.6127434,14.0748187 20.6509899,19.298444 C18.9406707,23.856057 17.9564848,25.4167576 16.0858586,25.7354786 C16.0836525,25.7332546 16.0816162,25.7310876 16.0816162,25.72778 C12.2585697,26.2680489 12.3271838,21.3545336 12.3271838,21.3545336 L0.117430303,16.3823381 C-0.750230303,21.9266802 3.47556364,23.2601874 3.47556364,23.2601874 L12.414804,27.3518371 C12.4169535,27.3529776 13.8124283,28.0230957 15.3291232,27.9542077 C19.4201212,27.8570916 20.8577939,24.8623462 22.6591838,20.0644807 C25.2616566,13.1304033 27.903103,5.36088798 27.9290667,5.27848473 C28.0221737,4.98451324 27.9854061,4.66744603 27.8295111,4.40335642 Z" id="Shape"></path>
                        <path d="M20.6052848,10.6428513 C20.6983919,10.6685132 20.7947798,10.6821426 20.8899798,10.6821426 C21.3608323,10.6821426 21.7916364,10.3656456 21.9236606,9.88542566 C22.0805737,9.30860285 21.7417455,8.7127332 21.1703758,8.55556823 L16.5188121,7.10817923 C15.9537778,6.95050102 15.3561051,7.28935234 15.2002101,7.86560489 C15.0442586,8.44237067 15.3799758,9.03829735 15.9535515,9.19603259 L20.6052848,10.6428513 Z" id="Shape"></path>
                        <path d="M13.3372768,12.2001874 C13.1508364,12.7682851 13.4535192,13.3800652 14.0154424,13.5696782 L18.6426263,15.2366762 C18.7549657,15.2743707 18.8653818,15.2913075 18.9767596,15.2919348 C19.428097,15.2943299 19.8508687,15.0073157 20.0015596,14.5528717 C20.1885091,13.9863136 19.8863919,13.3736212 19.3222061,13.1841222 L14.6967758,11.5182077 C14.1315152,11.3296212 13.5259232,11.6347128 13.3372768,12.2001874 Z" id="Shape"></path>
                        <path d="M12.9301737,16.0349898 C12.3672323,15.8450916 11.7593778,16.1549735 11.5753131,16.7247821 C11.3902303,17.2901426 11.6987394,17.9035193 12.2616808,18.0890265 L16.8985374,19.7491242 C17.0102545,19.7872749 17.1215192,19.8036415 17.2343111,19.8036415 C17.6846303,19.8036415 18.1046869,19.5145173 18.2530586,19.0604155 C18.4380848,18.4918045 18.1307071,17.8795682 17.5677657,17.6940041 L12.9301737,16.0349898 Z" id="Shape"></path>
                        <path d="M12.758497,5.8461833 C13.4156202,5.8461833 13.9488081,6.36894501 13.9488081,7.01288798 C13.9488081,7.6573442 13.4156202,8.17953564 12.758497,8.17953564 C12.1008646,8.17953564 11.5676768,7.65728717 11.5676768,7.01288798 C11.5677333,6.36894501 12.1008646,5.8461833 12.758497,5.8461833 Z" id="Shape"></path>
                        <path d="M11.0745939,10.183332 C11.7322828,10.183332 12.2649051,10.7055804 12.2649051,11.3494664 C12.2649051,11.9928391 11.7322828,12.5150305 11.0745939,12.5150305 C10.4169616,12.5150305 9.88377374,11.9928391 9.88377374,11.3494664 C9.88377374,10.7056375 10.4169616,10.183332 11.0745939,10.183332 Z" id="Shape"></path>
                        <path d="M9.27863434,14.6580285 C9.93632323,14.6580285 10.4694545,15.1808473 10.4694545,15.8258737 C10.4694545,16.4697026 9.93632323,16.9913809 9.27863434,16.9913809 C8.62100202,16.9913809 8.08781414,16.4698167 8.08781414,15.8258737 C8.08781414,15.1808473 8.62100202,14.6580285 9.27863434,14.6580285 Z" id="Shape"></path>
                    </g>
                </g>
            </g>
        </g>
    </g>
</svg>