<?xml version="1.0" encoding="UTF-8" standalone="no"?>
<svg width="23px" height="24px" viewBox="0 0 23 24" version="1.1" xmlns="http://www.w3.org/2000/svg" xmlns:xlink="http://www.w3.org/1999/xlink">
    <!-- Generator: Sketch 46 (44423) - http://www.bohemiancoding.com/sketch -->
    <title>Page 1</title>
    <desc>Created with Sketch.</desc>
    <defs></defs>
    <g id="Page-1" stroke="none" stroke-width="1" fill="none" fill-rule="evenodd">
        <g id="05.01.-Chi-tiết-TTHC" transform="translate(-1059.000000, -291.000000)" fill="#52555C">
            <g id="Group-3" transform="translate(100.000000, 267.000000)">
                <g id="Group-12" transform="translate(959.000000, 24.000000)">
                    <path d="M5.06301813,14.0625 L10.5749705,19.242186 C10.6581081,19.320312 10.7495557,19.374999 10.8493227,19.40625 C10.9490866,19.437501 11.0571604,19.453125 11.1735537,19.453125 C11.289947,19.453125 11.3980208,19.437501 11.4977847,19.40625 C11.5975518,19.374999 11.6889993,19.320312 11.772137,19.242186 L17.2840893,14.0625 C17.4337383,13.921875 17.5085596,13.746096 17.5085596,13.535157 C17.5085596,13.324218 17.4337383,13.148439 17.2840893,13.007814 C17.1344435,12.867186 16.9473886,12.796875 16.7229183,12.796875 C16.498448,12.796875 16.3113932,12.867186 16.1617473,13.007814 L11.9716647,16.945314 L11.9716647,0.75 C11.9716647,0.546873 11.8926868,0.371094 11.7347247,0.222657 C11.5767658,0.074217 11.3897109,0 11.1735537,0 C10.9573965,0 10.7703417,0.074217 10.6123827,0.222657 C10.4544206,0.371094 10.3754427,0.546873 10.3754427,0.75 L10.3754427,16.945314 L6.18536009,13.007814 C6.03571429,12.867186 5.84865942,12.796875 5.62418911,12.796875 C5.3997188,12.796875 5.21266393,12.867186 5.06301813,13.007814 C4.91336912,13.148439 4.83854782,13.324218 4.83854782,13.535157 C4.83854782,13.746096 4.91336912,13.921875 5.06301813,14.0625 L5.06301813,14.0625 Z M19.1546635,3 L16.7603306,3 L16.7603306,4.5 L19.1546635,4.5 C19.5869747,4.5 19.9610876,4.648437 20.2770055,4.945314 C20.5929265,5.242188 20.7508855,5.593749 20.7508855,6 L20.7508855,21 C20.7508855,21.4062519 20.5929265,21.7578111 20.2770055,22.0546875 C19.9610876,22.3515639 19.5869747,22.5 19.1546635,22.5 L3.19244392,22.5 C2.76013178,22.5 2.38602077,22.3515639 2.07010035,22.0546875 C1.75417993,21.7578111 1.59622196,21.4062519 1.59622196,21 L1.59622196,6 C1.59622196,5.593749 1.75417993,5.242188 2.07010035,4.945314 C2.38602077,4.648437 2.76013178,4.5 3.19244392,4.5 L5.58677686,4.5 L5.58677686,3 L3.19244392,3 C2.31119212,3 1.55881354,3.292965 0.935286464,3.878907 C0.311758973,4.464846 0,5.171871 0,6 L0,21 C0,21.828129 0.311758973,22.5351534 0.935286464,23.1210936 C1.55881354,23.7070342 2.31119212,24 3.19244392,24 L19.1546635,24 C20.0359153,24 20.7882945,23.7070342 21.4118203,23.1210936 C22.0353493,22.5351534 22.3471074,21.828129 22.3471074,21 L22.3471074,6 C22.3471074,5.171871 22.0353493,4.464846 21.4118203,3.878907 C20.7882945,3.292965 20.0359153,3 19.1546635,3 L19.1546635,3 Z" id="Page-1"></path>
                </g>
            </g>
        </g>
    </g>
</svg>