<?xml version="1.0" encoding="UTF-8" standalone="no"?>
<svg width="22px" height="22px" viewBox="0 0 22 22" version="1.1" xmlns="http://www.w3.org/2000/svg" xmlns:xlink="http://www.w3.org/1999/xlink">
    <!-- Generator: Sketch 46 (44423) - http://www.bohemiancoding.com/sketch -->
    <title>Page 1</title>
    <desc>Created with Sketch.</desc>
    <defs></defs>
    <g id="Page-1" stroke="none" stroke-width="1" fill="none" fill-rule="evenodd">
        <g id="03.-Biểu-mẫu-điện-tử" transform="translate(-1784.000000, -189.000000)" fill="#FFFFFF">
            <path d="M1799.23077,198.307692 C1799.23077,196.677075 1798.65125,195.282256 1797.49219,194.123195 C1796.33313,192.964135 1794.93831,192.384615 1793.30769,192.384615 C1791.67708,192.384615 1790.28226,192.964135 1789.1232,194.123195 C1787.96414,195.282256 1787.38462,196.677075 1787.38462,198.307692 C1787.38462,199.93831 1787.96414,201.333126 1789.1232,202.492187 C1790.28226,203.651247 1791.67708,204.23077 1793.30769,204.23077 C1794.93831,204.23077 1796.33313,203.651247 1797.49219,202.492187 C1798.65125,201.333126 1799.23077,199.93831 1799.23077,198.307692 Z M1806,209.307692 C1806,209.766028 1805.83253,210.162658 1805.4976,210.497596 C1805.16266,210.832534 1804.76603,211 1804.30769,211 C1803.83173,211 1803.4351,210.832534 1803.11779,210.497596 L1798.58293,205.97596 C1797.0052,207.068916 1795.2468,207.615385 1793.30769,207.615385 C1792.04727,207.615385 1790.84195,207.370794 1789.69171,206.88161 C1788.54146,206.392426 1787.54988,205.731375 1786.71695,204.898437 C1785.88401,204.065501 1785.22296,203.073925 1784.73377,201.923678 C1784.24459,200.773431 1784,199.568114 1784,198.307692 C1784,197.047268 1784.24459,195.841951 1784.73377,194.691707 C1785.22296,193.54146 1785.88401,192.549884 1786.71695,191.716945 C1787.54988,190.884009 1788.54146,190.222958 1789.69171,189.733772 C1790.84195,189.244588 1792.04727,189 1793.30769,189 C1794.56812,189 1795.77343,189.244588 1796.92368,189.733772 C1798.07392,190.222958 1799.0655,190.884009 1799.89844,191.716945 C1800.73138,192.549884 1801.39243,193.54146 1801.88161,194.691707 C1802.3708,195.841951 1802.61538,197.047268 1802.61538,198.307692 C1802.61538,200.246804 1802.06892,202.0052 1800.97596,203.582933 L1805.51082,208.117788 C1805.83694,208.443912 1806,208.840542 1806,209.307692 Z" id="Page-1"></path>
        </g>
    </g>
</svg>