<?xml version="1.0" encoding="UTF-8" standalone="no"?>
<svg width="22px" height="23px" viewBox="0 0 22 23" version="1.1" xmlns="http://www.w3.org/2000/svg" xmlns:xlink="http://www.w3.org/1999/xlink">
    <!-- Generator: Sketch 46 (44423) - http://www.bohemiancoding.com/sketch -->
    <title>Page 1</title>
    <desc>Created with Sketch.</desc>
    <defs></defs>
    <g id="Page-1" stroke="none" stroke-width="1" fill="none" fill-rule="evenodd">
        <g id="02.-Lịch-làm-việc-của-quận" transform="translate(-76.000000, -1011.000000)" fill="#FFFFFF">
            <g id="Group-5" transform="translate(50.000000, 995.000000)">
                <path d="M46.7231134,24.2207295 C46.9128615,24.334577 47.007732,24.5243215 47.007732,24.7899667 L47.007732,38.0531928 C47.007732,38.5465341 46.7610637,38.7932011 46.2677236,38.7932011 L40.8030468,38.7932011 C40.3476534,38.7932011 40.1199622,38.5465341 40.1199622,38.0531928 L40.1199622,29.9131013 L33.8014296,29.9131013 L33.8014296,38.0531928 C33.8014296,38.5465341 33.5737383,38.7932011 33.118345,38.7932011 L27.6536681,38.7932011 C27.1603268,38.7932011 26.9136598,38.5465341 26.9136598,38.0531928 L26.9136598,24.7899667 C26.9136598,24.5243215 27.0085317,24.334577 27.1982784,24.2207295 L36.3629968,16.87757 C36.6665924,16.6498751 36.9701807,16.6498751 37.2737763,16.87757 L46.7231134,24.2207295 Z" id="Page-1"></path>
            </g>
        </g>
    </g>
</svg>