<?xml version="1.0" encoding="UTF-8" standalone="no"?>
<svg width="27px" height="27px" viewBox="0 0 27 27" version="1.1" xmlns="http://www.w3.org/2000/svg" xmlns:xlink="http://www.w3.org/1999/xlink">
    <!-- Generator: Sketch 46 (44423) - http://www.bohemiancoding.com/sketch -->
    <title>Page 1</title>
    <desc>Created with Sketch.</desc>
    <defs></defs>
    <g id="Page-1" stroke="none" stroke-width="1" fill="none" fill-rule="evenodd">
        <g id="05.01.-Chi-tiết-TTHC" transform="translate(-1656.000000, -291.000000)" fill="#52555C">
            <g id="Group-3" transform="translate(100.000000, 267.000000)">
                <g id="Group-14" transform="translate(1556.000000, 24.000000)">
                    <path d="M26.7363281,25.5234375 L19.7753906,18.6679688 C20.6894587,17.6835893 21.4101529,16.549812 21.9375,15.2666032 C22.4648471,13.9833911 22.7285156,12.6210994 22.7285156,11.1796875 C22.7285156,9.6328035 22.4296897,8.18262337 21.8320312,6.82910325 C21.2343727,5.47557975 20.4213926,4.29346237 19.3930672,3.282714 C18.3647419,2.271969 17.1606499,1.47217162 15.7807609,0.883301625 C14.4008719,0.294431625 12.9287171,0 11.3642595,0 C9.7997985,0 8.32764375,0.294431625 6.94775475,0.883301625 C5.56786575,1.47217162 4.36377375,2.271969 3.33544905,3.282714 C2.30712367,4.29346237 1.49414355,5.47557975 0.896484375,6.82910325 C0.298825132,8.18262337 0,9.6328035 0,11.1796875 C0,12.7265715 0.298825132,14.1767516 0.896484375,15.5302717 C1.49414355,16.8837952 2.30712367,18.0659126 3.33544905,19.076661 C4.36377375,20.087406 5.56786575,20.8872034 6.94775475,21.4760734 C8.32764375,22.0649434 9.7997985,22.359375 11.3642595,22.359375 C12.7177796,22.359375 14.0009715,22.139649 15.2138655,21.700197 C16.4267629,21.2607416 17.5253861,20.6455129 18.5097656,19.8544905 L25.497072,26.7363281 C25.6728521,26.9121102 25.879392,27 26.1166984,27 C26.3540047,27 26.5605446,26.9121102 26.7363281,26.7363281 C26.9121116,26.5781243 27,26.3803723 27,26.1430666 C27,25.9057605 26.9121116,25.6992196 26.7363281,25.5234375 L26.7363281,25.5234375 L26.7363281,25.5234375 Z M11.3642595,20.6455095 C10.028313,20.6455095 8.7802785,20.3950204 7.6201155,19.8940421 C6.45995588,19.3930639 5.44483013,18.7163123 4.57470787,17.8637704 C3.70458563,17.0112251 3.01465091,16.0092821 2.50488281,14.857911 C1.99511471,13.7065365 1.74023438,12.4804766 1.74023438,11.1796875 C1.74023438,9.87889838 1.99511471,8.6528385 2.50488281,7.501464 C3.01465091,6.35009288 3.70458563,5.34814988 4.57470787,4.49560463 C5.44483013,3.64306275 6.45995588,2.96631113 7.6201155,2.46533288 C8.7802785,1.96435463 10.028313,1.7138655 11.3642595,1.7138655 C12.6826222,1.7138655 13.9262625,1.96435463 15.095214,2.46533288 C16.2641655,2.96631113 17.2836855,3.64306275 18.1538078,4.49560463 C19.02393,5.34814988 19.7094701,6.35009288 20.2104484,7.501464 C20.7114266,8.6528385 20.9619157,9.87889838 20.9619157,11.1796875 C20.9619157,12.4804766 20.7114266,13.7065365 20.2104484,14.857911 C19.7094701,16.0092821 19.02393,17.0112251 18.1538078,17.8637704 C17.2836855,18.7163123 16.2641655,19.3930639 15.095214,19.8940421 C13.9262625,20.3950204 12.6826222,20.6455095 11.3642595,20.6455095 L11.3642595,20.6455095 Z M16.03125,10.96875 C16.03125,11.1972679 15.9477559,11.3950192 15.7807609,11.5620109 C15.6137692,11.7290059 15.4160179,11.8125 15.1875,11.8125 L6.75,11.8125 C6.52148212,11.8125 6.32373075,11.7290059 6.15673912,11.5620109 C5.98974412,11.3950192 5.90625,11.1972679 5.90625,10.96875 C5.90625,10.7402321 5.98974412,10.5424807 6.15673912,10.3754891 C6.32373075,10.2084941 6.52148212,10.125 6.75,10.125 L15.1875,10.125 C15.4160179,10.125 15.6137692,10.2084941 15.7807609,10.3754891 C15.9477559,10.5424807 16.03125,10.7402321 16.03125,10.96875 L16.03125,10.96875 Z" id="Page-1"></path>
                </g>
            </g>
        </g>
    </g>
</svg>