<?xml version="1.0" encoding="UTF-8" standalone="no"?>
<svg width="27px" height="27px" viewBox="0 0 27 27" version="1.1" xmlns="http://www.w3.org/2000/svg" xmlns:xlink="http://www.w3.org/1999/xlink">
    <!-- Generator: Sketch 46 (44423) - http://www.bohemiancoding.com/sketch -->
    <title>Page 1</title>
    <desc>Created with Sketch.</desc>
    <defs></defs>
    <g id="Page-1" stroke="none" stroke-width="1" fill="none" fill-rule="evenodd">
        <g id="05.01.-Chi-tiết-TTHC" transform="translate(-1743.000000, -291.000000)" fill="#52555C">
            <g id="Group-3" transform="translate(100.000000, 267.000000)">
                <g id="Group-14" transform="translate(1556.000000, 24.000000)">
                    <path d="M113.736328,25.5234375 L106.775391,18.6679688 C107.689459,17.6835893 108.410153,16.549812 108.9375,15.2666032 C109.464847,13.9833911 109.728516,12.6210994 109.728516,11.1796875 C109.728516,9.6328035 109.42969,8.18262337 108.832031,6.82910325 C108.234373,5.47557975 107.421393,4.29346237 106.393067,3.282714 C105.364742,2.271969 104.16065,1.47217162 102.780761,0.883301625 C101.400872,0.294431625 99.9287171,0 98.3642595,0 C96.7997985,0 95.3276438,0.294431625 93.9477548,0.883301625 C92.5678657,1.47217162 91.3637738,2.271969 90.335449,3.282714 C89.3071237,4.29346237 88.4941436,5.47557975 87.8964844,6.82910325 C87.2988251,8.18262337 87,9.6328035 87,11.1796875 C87,12.7265715 87.2988251,14.1767516 87.8964844,15.5302717 C88.4941436,16.8837952 89.3071237,18.0659126 90.335449,19.076661 C91.3637738,20.087406 92.5678657,20.8872034 93.9477548,21.4760734 C95.3276438,22.0649434 96.7997985,22.359375 98.3642595,22.359375 C99.7177796,22.359375 101.000972,22.139649 102.213865,21.700197 C103.426763,21.2607416 104.525386,20.6455129 105.509766,19.8544905 L112.497072,26.7363281 C112.672852,26.9121102 112.879392,27 113.116698,27 C113.354005,27 113.560545,26.9121102 113.736328,26.7363281 C113.912112,26.5781243 114,26.3803723 114,26.1430666 C114,25.9057605 113.912112,25.6992196 113.736328,25.5234375 L113.736328,25.5234375 L113.736328,25.5234375 Z M98.3642595,20.6455095 C97.028313,20.6455095 95.7802785,20.3950204 94.6201155,19.8940421 C93.4599559,19.3930639 92.4448301,18.7163123 91.5747079,17.8637704 C90.7045856,17.0112251 90.0146509,16.0092821 89.5048828,14.857911 C88.9951147,13.7065365 88.7402344,12.4804766 88.7402344,11.1796875 C88.7402344,9.87889838 88.9951147,8.6528385 89.5048828,7.501464 C90.0146509,6.35009288 90.7045856,5.34814988 91.5747079,4.49560463 C92.4448301,3.64306275 93.4599559,2.96631113 94.6201155,2.46533288 C95.7802785,1.96435463 97.028313,1.7138655 98.3642595,1.7138655 C99.6826223,1.7138655 100.926263,1.96435463 102.095214,2.46533288 C103.264166,2.96631113 104.283686,3.64306275 105.153808,4.49560463 C106.02393,5.34814988 106.70947,6.35009288 107.210448,7.501464 C107.711427,8.6528385 107.961916,9.87889838 107.961916,11.1796875 C107.961916,12.4804766 107.711427,13.7065365 107.210448,14.857911 C106.70947,16.0092821 106.02393,17.0112251 105.153808,17.8637704 C104.283686,18.7163123 103.264166,19.3930639 102.095214,19.8940421 C100.926263,20.3950204 99.6826223,20.6455095 98.3642595,20.6455095 L98.3642595,20.6455095 Z M103.03125,10.96875 C103.03125,11.1972679 102.947756,11.3950192 102.780761,11.5620109 C102.613769,11.7290059 102.416018,11.8125 102.1875,11.8125 L98.8125,11.8125 L98.8125,15.1875 C98.8125,15.4160179 98.7290059,15.6137692 98.5620109,15.7807609 C98.3950193,15.9477559 98.1972679,16.03125 97.96875,16.03125 C97.7402321,16.03125 97.5424807,15.9477559 97.3754891,15.7807609 C97.2084941,15.6137692 97.125,15.4160179 97.125,15.1875 L97.125,11.8125 L93.75,11.8125 C93.5214821,11.8125 93.3237307,11.7290059 93.1567391,11.5620109 C92.9897441,11.3950192 92.90625,11.1972679 92.90625,10.96875 C92.90625,10.7402321 92.9897441,10.5424807 93.1567391,10.3754891 C93.3237307,10.2084941 93.5214821,10.125 93.75,10.125 L97.125,10.125 L97.125,6.75 C97.125,6.52148212 97.2084941,6.32373075 97.3754891,6.15673912 C97.5424807,5.98974412 97.7402321,5.90625 97.96875,5.90625 C98.1972679,5.90625 98.3950193,5.98974412 98.5620109,6.15673912 C98.7290059,6.32373075 98.8125,6.52148212 98.8125,6.75 L98.8125,10.125 L102.1875,10.125 C102.416018,10.125 102.613769,10.2084941 102.780761,10.3754891 C102.947756,10.5424807 103.03125,10.7402321 103.03125,10.96875 L103.03125,10.96875 Z" id="Page-1"></path>
                </g>
            </g>
        </g>
    </g>
</svg>